# xmcd
#
# Track frame offsets:
#	225
#	11511
#	26667
#	38966
#	52336
#	66398
#	80188
#	94574
#
# Disc length: 1552 seconds
#
# Revision: 1
# Processed by: cddbd v1.5.1PL0 Copyright (c) Steve Scherf et al.
# Submitted via: audiograbber 1.83.01
#
DISCID=6c060d08
DTITLE=Bartl Gensbichler und seine Schilehrermusi - A b`sondere Musi
DYEAR=1900
DGENRE=Country
TTITLE0=Ein Fest mit guten Freunden
TTITLE1=Schilehrermusi Hit`s die 1. (Medley)
TTITLE2=Schilhrermusi Hit`s die 2. (Medley)
TTITLE3=Schneewalzer
TTITLE4=Hallo Kraxlhuaba
TTITLE5=Aweiss-blaue Nacht
TTITLE6=Julia in Love
TTITLE7=Oberkrainer Polkaraketen (Medley)
EXTD=
EXTT0=
EXTT1=
EXTT2=
EXTT3=
EXTT4=
EXTT5=
EXTT6=
EXTT7=
PLAYORDER=
